<svg id="Icon_medium_team" xmlns="http://www.w3.org/2000/svg" viewBox="0 0 36 36">
  <defs>
    <style>
      .cls-1 {
        fill: #999;
      }

      .cls-2 {
        fill: none;
      }
    </style>
  </defs>
  <path id="Path_1203" data-name="Path 1203" class="cls-1" d="M30.663,23.545a.6.6,0,0,0,.727,0l.487-.373A5.473,5.473,0,0,0,34,18.838a.6.6,0,0,0-.333-.54l-2.4-1.2a.6.6,0,0,0-.54,0l-2.4,1.2a.6.6,0,0,0-.333.54,5.467,5.467,0,0,0,2.147,4.333Zm-1.42-4.34,1.787-.893,1.787.893a4.267,4.267,0,0,1-1.66,3.013l-.127.093-.127-.093A4.267,4.267,0,0,1,29.21,19.2Z" transform="translate(-9.33 -5.678)"/>
  <path id="Path_1204" data-name="Path 1204" class="cls-1" d="M35,9.86A6,6,0,0,0,29,4H9A6,6,0,0,0,3,9.86s0,0,0,.033v9.22A.887.887,0,0,0,3.887,20H8.693a1,1,0,0,0,1-1V13a1,1,0,0,0-2,0v1.667H5V10H5A4,4,0,0,1,9,6h5.427a5,5,0,0,0,9.8,0H29a4,4,0,0,1,4,4h0v4.667H30.333V13a1,1,0,1,0-2,0V32.667H9.667V23.04a1,1,0,0,0-2,0V33.667h0a1,1,0,0,0,1,1H29.333a1,1,0,0,0,1-1h0V20H35V9.86ZM7.667,16.667V18H5V16.667ZM19.333,8A2.993,2.993,0,0,1,16.52,6h5.633A2.993,2.993,0,0,1,19.333,8ZM33,18H30.333V16.667H33Z" transform="translate(-1 -1.333)"/>
  <rect id="Rectangle_2089" data-name="Rectangle 2089" class="cls-2" width="36" height="36"/>
</svg>
