<svg xmlns="http://www.w3.org/2000/svg" viewBox="0 0 32 32"><defs><style>.cls-1{fill:#374BBF;}</style></defs><title>Icon_small_plus_1</title><g id="original"><path class="cls-1" d="M16,3A13,13,0,1,0,29,16,13,13,0,0,0,16,3Zm0,23a10,10,0,1,1,10-10A10,10,0,0,1,16,26.07Z"/><path class="cls-1" d="M16,18.49A1.47,1.47,0,0,0,14.53,20V22a1.47,1.47,0,0,0,2.94,0V20A1.47,1.47,0,0,0,16,18.49Z"/><path class="cls-1" d="M22,14.53H17.47V10a1.47,1.47,0,0,0-2.94,0v4.55H10a1.47,1.47,0,0,0,0,2.94H22a1.47,1.47,0,1,0,0-2.94Z"/></g></svg>