<svg xmlns="http://www.w3.org/2000/svg" viewBox="0 0 54 54" class="headset-icon">
    <path d="M31.57,26.56v1a.19.19,0,0,0,.21.17,21.46,21.46,0,0,0,3-.05c.87-.09,1.67-.26,1.67-.26h0a.21.21,0,0,1,.21.21v.94a.21.21,0,0,1-.18.21,14.36,14.36,0,0,1-3.46.27,12.05,12.05,0,0,0-3,.11h0a.31.31,0,0,1-.32-.3V25.31A.31.31,0,0,1,30,25a59.38,59.38,0,0,0,9-1.14l.19,1.84q-3.64.53-7.38.74h0A.19.19,0,0,0,31.57,26.56ZM23.79,25a58.94,58.94,0,0,1-9.07-1.18l-.15,1.84c2.43.35,4.9.6,7.39.74a.18.18,0,0,1,.18.18v1a.19.19,0,0,1-.19.19h0a21.46,21.46,0,0,1-3,0c-.87-.09-1.68-.26-1.68-.26a.2.2,0,0,0-.23.17v1a.21.21,0,0,0,.18.21,14.36,14.36,0,0,0,3.46.27,12.05,12.05,0,0,1,3,.11A.31.31,0,0,0,24,29v0l.08-3.59A.31.31,0,0,0,23.79,25Zm-8.67-4.67h.07l.35-.11a4,4,0,0,1,1.19-.15H37a4.24,4.24,0,0,1,1.23.16l.31.1A2.16,2.16,0,0,1,39.75,22,14.58,14.58,0,0,1,40,23.74l.29-1.91a6.38,6.38,0,0,0,.08-1.51,13.43,13.43,0,0,0-26.84.77l.21,2.37c.07-.51.15-1,.24-1.45A2.18,2.18,0,0,1,15.12,20.37Zm28,.71a16.09,16.09,0,0,0-32.18,0,5,5,0,0,0-4.74,5V28a5,5,0,0,0,5,5h1.39V21.08a14.44,14.44,0,0,1,28.87,0V33a14.42,14.42,0,0,1-13.6,14.34.83.83,0,0,0,0,1.66A16.1,16.1,0,0,0,43.09,33a5,5,0,0,0,4.74-5V26.08A5,5,0,0,0,43.09,21.08ZM28.74,38.51a.22.22,0,0,0,.21-.22v-.66a.22.22,0,0,0-.21-.23h0l-1.54.17H26.6L25,37.4a.23.23,0,0,0-.25.21v.68a.22.22,0,0,0,.21.22l1.69.11a2.72,2.72,0,0,0,.57,0Zm-2.2-3.12a2.91,2.91,0,0,0,.59,0l1.77-.14a.79.79,0,0,0,.72-.78v-.24a.21.21,0,0,0-.22-.2h0l-2.32.25h-.49L24.26,34a.2.2,0,0,0-.22.18v.26a.78.78,0,0,0,.72.78Z" opacity="1" fill="#374bbf"></path>
</svg>