<svg xmlns="http://www.w3.org/2000/svg" viewBox="0 0 54 54" class="bus-icon">
    <g id="Livello_2-2" fill="#374bbf">
        <path d="M49.5,48H48V24.49a1.5,1.5,0,1,0-3,0V48H39V20h7.54a1.5,1.5,0,0,0,0-3H39V4.49A1.49,1.49,0,0,0,37.51,3h-20a1.5,1.5,0,0,0,0,3H36V48H32V41.49A1.49,1.49,0,0,0,30.51,40h-7A1.47,1.47,0,0,0,22,41.42a1.08,1.08,0,0,0,0,.31V48H19V10.49a1.5,1.5,0,0,0-3,0V20.84L7,24a1.49,1.49,0,0,0-1,1.42v18.1a1.5,1.5,0,0,0,3,0v-17L16,24V48H4.5a1.5,1.5,0,0,0,0,3h45a1.5,1.5,0,0,0,0-3ZM29,48H25V43h4ZM22.49,14A1.49,1.49,0,0,1,21,12.51v-2a1.5,1.5,0,1,1,3,0v2A1.49,1.49,0,0,1,22.51,14Zm10,0A1.49,1.49,0,0,1,31,12.51v-2a1.5,1.5,0,1,1,3,0v2h0A1.49,1.49,0,0,1,32.5,14ZM21,18.51a1.5,1.5,0,0,1,3,0v2a1.5,1.5,0,1,1-3,0Zm10,0a1.5,1.5,0,0,1,3,0v2a1.5,1.5,0,1,1-3,0Zm-10,8a1.5,1.5,0,0,1,3,0v2a1.5,1.5,0,1,1-3,0Zm5,0a1.5,1.5,0,0,1,3,0v2a1.5,1.5,0,1,1-3,0Zm0-8a1.5,1.5,0,0,1,3,0v2a1.5,1.5,0,1,1-3,0ZM27.49,14A1.49,1.49,0,0,1,26,12.51v-2a1.5,1.5,0,1,1,3,0v2h0A1.49,1.49,0,0,1,27.5,14ZM31,26.51a1.5,1.5,0,0,1,3,0v2a1.5,1.5,0,1,1-3,0Zm-10,8a1.5,1.5,0,0,1,3,0v2a1.5,1.5,0,0,1-3,0Zm5,0a1.5,1.5,0,0,1,3,0v2a1.5,1.5,0,0,1-3,0Zm5,0a1.5,1.5,0,1,1,3,0v2a1.5,1.5,0,0,1-3,0ZM12.49,33A1.49,1.49,0,0,1,11,31.51v-1a1.5,1.5,0,0,1,3,0v1h0A1.49,1.49,0,0,1,12.5,33ZM11,36.51a1.5,1.5,0,0,1,3,0v1a1.5,1.5,0,0,1-3,0Zm29.49-11v-1a1.5,1.5,0,0,1,3,0v1a1.5,1.5,0,1,1-3,0Zm0,5a1.5,1.5,0,0,1,3,0v1a1.5,1.5,0,0,1-3,0Zm0,7v-1A1.49,1.49,0,0,1,42,35h0a1.49,1.49,0,0,1,1.49,1.49v1a1.5,1.5,0,0,1-3,0Z"></path>
    </g>
</svg>