<svg xmlns="http://www.w3.org/2000/svg" viewBox="0 0 54 54" class="car-icon">
    <path d="M48.5,25H46.58L42.92,13a1.48,1.48,0,0,0-1.42-1H34.25l-.77-5.27A1.5,1.5,0,0,0,32,5.5H21a1.5,1.5,0,0,0-1.48,1.23L18.75,12H12.5a1.48,1.48,0,0,0-1.42,1L7.42,25H5.5A1.5,1.5,0,0,0,4,26.5v23A1.5,1.5,0,0,0,5.5,51h7A1.5,1.5,0,0,0,14,49.5V44H40v5.5A1.5,1.5,0,0,0,41.5,51h7A1.5,1.5,0,0,0,50,49.5v-23A1.5,1.5,0,0,0,48.5,25ZM22.25,8.5h8.5L31.2,12H21.8ZM13.58,15H40.42l3,10H10.58ZM7,28H47V41H7Zm4,20H7V44h4Zm36,0H43V44h4ZM20,37.5v-6A1.5,1.5,0,0,0,18.5,30h-8A1.5,1.5,0,0,0,9,31.5v6A1.5,1.5,0,0,0,10.5,39h8A1.5,1.5,0,0,0,20,37.5ZM17,36H12V33h5Zm18.5,3h8A1.5,1.5,0,0,0,45,37.5v-6A1.5,1.5,0,0,0,43.5,30h-8A1.5,1.5,0,0,0,34,31.5v6A1.5,1.5,0,0,0,35.5,39ZM37,33h5v3H37Z" fill="#374bbf"></path>
</svg>