<svg xmlns="http://www.w3.org/2000/svg" viewBox="0 0 54 54" class="ins-icon">
    <g id="Livello_3" fill="#374bbf">
        <path d="M46.88,14.05a3.54,3.54,0,0,0-2.7-2.89C40.59,9.74,31.67,6.08,28.59,4.39a3.14,3.14,0,0,0-3,0c-3,1.69-12.06,5.38-15.67,6.79-.84.31-2.68,1-2.68,2.89-.36,4.32-.65,15.1,2.11,21.67C13,44.58,23,48.76,25.94,49.81A3.1,3.1,0,0,0,27,50h0a3,3,0,0,0,1.11-.21C31.06,48.71,41,44.56,44.66,35.72,47.42,29.14,47.13,18.37,46.88,14.05Zm-5,20.51C38.68,42.22,29.76,46,27.1,47l0,0h0L27,47h0c-1.9-.67-11.53-4.45-14.86-12.4C9.74,29,9.8,19.21,10.2,14.32h0A5.61,5.61,0,0,1,11,14c3.11-1.22,12.72-5.11,16-7l.08,0,.07,0C30.68,9,40.61,13,43.08,14l.2.08.22.05a.51.51,0,0,1,.39.36C44.09,17.9,44.43,28.53,41.9,34.56Z"></path>
        <path d="M36.92,20.87a1,1,0,0,0-1.49,0L25.09,30.6l-3.5-4.68a1.06,1.06,0,0,0-1.47-.21,1,1,0,0,0-.21,1.47l4.21,5.63a1,1,0,0,0,1.54.09L36.92,22.35h0a1,1,0,0,0,0-1.46Z"></path>
    </g>
</svg>