<svg xmlns="http://www.w3.org/2000/svg" viewBox="0 0 54 54" class="stadium-tour-icon">
    <path d="M47.91,12.51A6,6,0,0,0,42,7.5H12a6,6,0,0,0-5.91,5,5.47,5.47,0,0,0-.09,1v3a5.8,5.8,0,0,0,.35,2,6,6,0,0,0,2.71,3.23A4.4,4.4,0,0,1,9,21V15a4.5,4.5,0,0,1,4.5-4.5h27a4.49,4.49,0,0,1,3.75,2A4.43,4.43,0,0,1,45,15v6a4.4,4.4,0,0,1-.06.73,6,6,0,0,0,2.71-3.21,5.87,5.87,0,0,0,.35-2v-3A5.36,5.36,0,0,0,47.91,12.51Zm3,0A9,9,0,0,0,42,4.5H12a9,9,0,0,0-8.94,8,8.26,8.26,0,0,0-.06,1v27a9,9,0,0,0,9,9H42a9,9,0,0,0,9-9v-27A8.22,8.22,0,0,0,50.94,12.51ZM48,16.5a5.87,5.87,0,0,1-.35,2,6,6,0,0,1-2.71,3.21A4.4,4.4,0,0,0,45,21V15a4.43,4.43,0,0,0-.75-2.49,4.49,4.49,0,0,0-3.75-2h-27A4.5,4.5,0,0,0,9,15v6a4.4,4.4,0,0,0,.06.73A6,6,0,0,1,6.35,18.5a5.8,5.8,0,0,1-.35-2v-3a5.47,5.47,0,0,1,.09-1A6,6,0,0,1,12,7.5H42a6,6,0,0,1,5.91,5,5.36,5.36,0,0,1,.09,1Zm-30.5,26v4h-5v-4Zm12,0v4h-5v-4Zm12,0v4h-5v-4ZM48,35.21V40.5a6,6,0,0,1-4.5,5.81V42A1.5,1.5,0,0,0,42,40.5H36A1.5,1.5,0,0,0,34.5,42v4.5h-3V42A1.5,1.5,0,0,0,30,40.5H24A1.5,1.5,0,0,0,22.5,42v4.5h-3V41.73A1.38,1.38,0,0,0,18,40.5H12a1.38,1.38,0,0,0-1.5,1.23v4.58A6,6,0,0,1,6,40.5V35.21a9,9,0,0,0,6,2.29H42A9,9,0,0,0,48,35.21Zm0-12v5.3a6,6,0,0,1-6,6H12a6,6,0,0,1-6-6V23.2a9,9,0,0,0,6,2.3H42A9,9,0,0,0,48,23.2Zm0-9.7v3a5.87,5.87,0,0,1-.35,2,6,6,0,0,1-2.71,3.21A4.4,4.4,0,0,0,45,21V15a4.43,4.43,0,0,0-.75-2.49,4.49,4.49,0,0,0-3.75-2h-27A4.5,4.5,0,0,0,9,15v6a4.4,4.4,0,0,0,.06.73A6,6,0,0,1,6.35,18.5a5.8,5.8,0,0,1-.35-2v-3a5.47,5.47,0,0,1,.09-1A6,6,0,0,1,12,7.5H42a6,6,0,0,1,5.91,5A5.36,5.36,0,0,1,48,13.5ZM42,15v6a1.5,1.5,0,0,1-1.5,1.5h-27A1.5,1.5,0,0,1,12,21V15a1.5,1.5,0,0,1,1.5-1.5h27A1.5,1.5,0,0,1,42,15Z" fill="#374bbf"></path>
</svg>