<?xml version="1.0" encoding="utf-8"?>
<!-- Generator: Adobe Illustrator 21.0.2, SVG Export Plug-In . SVG Version: 6.00 Build 0)  -->
<svg version="1.1" id="Layer_1" xmlns="http://www.w3.org/2000/svg" xmlns:xlink="http://www.w3.org/1999/xlink" x="0px" y="0px"
	 viewBox="0 0 28 40.2" style="enable-background:new 0 0 28 40.2;" xml:space="preserve">
<path d="M13.4,40c0.2,0.1,0.4,0.2,0.6,0.2s0.4-0.1,0.6-0.2C15.1,39.4,28,26.9,28,14c0-7.7-6.3-14-14-14S0,6.3,0,14
	C0,26.9,12.9,39.4,13.4,40z M14,1.6c6.8,0,12.4,5.6,12.4,12.4c0,10.7-9.9,21.7-12.4,24.2C11.5,35.7,1.6,24.7,1.6,14
	C1.6,7.2,7.2,1.6,14,1.6z"/>
<path d="M20.6,14c0-3.6-2.9-6.6-6.6-6.6c-3.6,0-6.6,2.9-6.6,6.6c0,3.6,2.9,6.6,6.6,6.6C17.6,20.6,20.6,17.6,20.6,14z M9,14
	c0-2.7,2.2-5,5-5s5,2.2,5,5s-2.2,5-5,5S9,16.7,9,14z"/>
</svg>
